<?xml version="1.0" standalone="no"?>
<!DOCTYPE svg PUBLIC "-//W3C//DTD SVG 20010904//EN"
 "http://www.w3.org/TR/2001/REC-SVG-20010904/DTD/svg10.dtd">
<svg version="1.0" xmlns="http://www.w3.org/2000/svg"
 width="200.000000pt" height="200.000000pt" viewBox="0 0 200.000000 200.000000"
 preserveAspectRatio="xMidYMid meet">
<metadata>
Created by potrace 1.11, written by Peter Selinger 2001-2013
</metadata>
<g transform="translate(0.000000,200.000000) scale(0.100000,-0.100000)"
fill="#000000" stroke="none">
<path d="M760 1801 c-118 -49 -219 -87 -225 -85 -5 2 -26 5 -45 8 -19 2 -85
12 -147 22 l-111 17 -41 -32 c-40 -32 -41 -34 -41 -93 0 -59 2 -63 90 -197
l90 -137 0 -165 0 -164 28 -30 c15 -17 83 -93 152 -170 69 -77 135 -151 147
-165 13 -14 24 -34 25 -45 12 -163 19 -228 23 -235 4 -7 261 -202 283 -214 8
-5 64 31 155 100 78 59 143 108 145 109 4 3 10 61 17 164 l7 94 174 194 c107
120 174 203 175 216 0 12 1 85 2 162 1 77 6 147 11 155 5 8 47 72 93 141 81
123 83 128 83 187 0 58 -1 61 -39 91 -44 35 -55 36 -166 17 -106 -19 -176 -29
-196 -28 -8 0 -112 39 -229 86 -118 47 -221 86 -230 85 -8 0 -112 -40 -230
-88z m474 -37 l200 -65 80 -72 c45 -39 84 -75 87 -80 16 -22 50 -267 45 -327
-3 -36 -8 -103 -11 -150 l-5 -85 -84 -85 c-127 -129 -239 -244 -259 -267 -20
-24 -21 -25 -37 -164 l-12 -105 -121 -82 -120 -81 -120 82 c-66 45 -121 89
-122 97 -6 40 -16 131 -22 180 -3 37 -12 61 -27 76 -11 11 -94 95 -183 186
l-163 165 -1 49 c-1 27 -3 69 -5 94 -11 134 -9 178 12 292 22 122 23 123 66
163 128 118 112 109 339 184 136 45 223 68 239 65 14 -3 115 -34 224 -70z"/>
<path d="M885 1790 c-18 -7 -18 -8 8 -15 29 -8 33 -15 17 -31 -8 -8 -7 -14 3
-23 19 -15 41 -6 58 26 12 22 11 27 -6 39 -21 15 -49 17 -80 4z"/>
<path d="M1026 1785 c-18 -14 -18 -16 -2 -40 21 -31 43 -42 59 -26 8 8 8 14
-1 23 -18 18 -15 25 16 33 25 7 25 8 7 15 -30 13 -58 11 -79 -5z"/>
<path d="M800 1725 c-7 -9 -21 -13 -31 -10 -10 4 -26 2 -36 -3 -15 -9 -12 -12
19 -25 30 -12 44 -13 75 -4 48 14 47 12 33 36 -13 25 -42 27 -60 6z"/>
<path d="M1137 1733 c-18 -17 -5 -40 29 -51 30 -9 44 -8 73 4 31 13 34 17 18
25 -9 6 -26 7 -37 4 -13 -4 -22 -1 -26 9 -6 16 -45 22 -57 9z"/>
<path d="M938 1634 c-16 -17 -28 -37 -28 -43 0 -12 39 -15 56 -3 17 11 22 47
10 63 -9 13 -15 10 -38 -17z"/>
<path d="M552 1631 c-17 -24 -19 -32 -8 -46 11 -16 15 -15 39 15 22 25 25 35
16 46 -16 20 -22 18 -47 -15z"/>
<path d="M706 1645 c-26 -19 -29 -45 -7 -45 20 0 64 43 54 53 -10 11 -26 8
-47 -8z"/>
<path d="M838 1653 c-16 -2 -28 -7 -29 -11 0 -4 -2 -15 -4 -24 -7 -36 88 -15
98 21 5 22 -1 24 -65 14z"/>
<path d="M1013 1644 c-10 -26 14 -64 41 -64 36 0 38 11 5 48 -33 36 -37 38
-46 16z"/>
<path d="M1090 1641 c0 -14 9 -25 26 -31 35 -14 74 -12 74 3 0 24 -15 35 -57
42 -39 6 -43 5 -43 -14z"/>
<path d="M1235 1651 c-6 -11 42 -51 61 -51 22 0 16 27 -8 44 -25 18 -44 20
-53 7z"/>
<path d="M1398 1647 c-15 -12 -14 -16 12 -45 23 -27 29 -30 40 -17 9 11 8 20
-6 45 -21 34 -22 34 -46 17z"/>
<path d="M598 1561 l-46 -38 25 -31 c13 -18 31 -32 39 -32 17 0 19 45 3 56 -7
4 0 17 17 35 44 46 17 54 -38 10z"/>
<path d="M1337 1588 c-2 -7 7 -25 21 -40 20 -22 23 -30 13 -41 -13 -16 -5 -47
13 -47 6 0 21 15 34 33 l22 32 -22 18 c-65 51 -76 57 -81 45z"/>
<path d="M712 1540 c-39 -69 -4 -84 41 -18 23 32 26 43 15 49 -23 15 -32 10
-56 -31z"/>
<path d="M1223 1573 c-14 -5 40 -93 58 -93 20 0 19 28 -1 64 -21 35 -31 40
-57 29z"/>
<path d="M1091 1520 c-6 -22 -9 -44 -6 -49 5 -10 90 33 101 51 10 15 -17 28
-44 21 -14 -3 -27 -1 -31 6 -5 7 -13 -5 -20 -29z"/>
<path d="M816 1542 c-27 -6 -14 -23 42 -55 l52 -29 -1 24 c-1 56 -27 72 -93
60z"/>
<path d="M456 1513 c-17 -82 -17 -103 -1 -109 39 -15 62 88 26 120 -18 17 -19
16 -25 -11z"/>
<path d="M1507 1522 c-14 -15 -17 -30 -13 -56 8 -51 27 -78 43 -64 16 13 16
50 0 102 -12 38 -12 38 -30 18z"/>
<path d="M940 1469 c0 -6 4 -18 9 -28 8 -15 4 -21 -25 -34 -18 -9 -34 -21 -34
-27 0 -14 6 -13 48 14 39 24 53 63 29 78 -17 11 -27 10 -27 -3z"/>
<path d="M1024 1468 c-17 -28 -9 -49 28 -73 21 -14 44 -23 50 -19 6 4 -4 15
-25 26 -33 16 -36 21 -30 48 6 31 -9 42 -23 18z"/>
<path d="M554 1379 c-19 -21 -19 -21 10 -8 27 12 30 11 52 -16 23 -29 28 -30
101 -30 43 -1 89 -5 103 -10 18 -6 12 3 -25 38 l-50 47 -86 0 c-74 0 -88 -3
-105 -21z"/>
<path d="M1195 1349 c-48 -50 -49 -51 -16 -34 27 13 51 16 103 13 66 -5 69 -4
94 25 23 27 27 29 52 18 27 -13 27 -13 8 8 -17 18 -31 21 -105 21 l-87 0 -49
-51z"/>
<path d="M403 1338 c-13 -15 -18 -30 -14 -41 6 -17 9 -16 36 7 27 23 28 27 14
41 -14 14 -17 13 -36 -7z"/>
<path d="M1552 1344 c-7 -15 -4 -24 18 -41 25 -21 29 -21 34 -6 4 11 -2 26
-18 41 -23 23 -24 24 -34 6z"/>
<path d="M471 1284 c-25 -32 -21 -41 25 -50 46 -8 56 3 39 44 -17 39 -37 41
-64 6z"/>
<path d="M1462 1285 c-24 -53 -7 -68 52 -45 32 12 33 23 4 50 -29 27 -42 25
-56 -5z"/>
<path d="M861 1268 c9 -34 4 -45 -40 -83 -22 -20 -23 -23 -8 -51 8 -16 51 -73
96 -127 55 -66 81 -107 82 -125 l1 -27 9 30 c5 17 43 71 85 120 42 50 83 105
92 123 l17 34 -36 32 c-30 28 -34 36 -27 61 4 16 6 31 4 33 -2 1 -19 -4 -37
-12 -30 -13 -31 -14 -6 -9 26 5 27 4 17 -22 -9 -25 -7 -32 16 -56 18 -19 24
-33 19 -48 -6 -21 -20 -27 -29 -13 -5 9 -224 7 -247 -2 -29 -13 -31 33 -3 61
19 19 24 32 19 51 -3 14 -1 28 5 32 6 4 1 11 -14 18 -24 10 -24 10 -15 -20z"/>
<path d="M370 1208 c0 -41 2 -46 20 -41 31 8 32 17 5 53 l-25 34 0 -46z"/>
<path d="M1599 1221 c-26 -36 -26 -43 0 -53 17 -6 21 -3 22 15 0 12 2 32 3 45
3 29 1 28 -25 -7z"/>
<path d="M446 1191 c-3 -5 9 -27 27 -49 l33 -40 11 28 c9 25 8 30 -18 49 -31
23 -45 26 -53 12z"/>
<path d="M1492 1180 c-17 -14 -21 -25 -16 -44 3 -14 8 -26 10 -26 9 0 63 66
64 78 0 18 -32 14 -58 -8z"/>
<path d="M619 1147 c17 -21 68 -53 101 -62 21 -6 -2 10 -100 70 -13 8 -13 6
-1 -8z"/>
<path d="M1335 1130 c-22 -16 -45 -29 -52 -30 -6 0 -15 -4 -18 -10 -4 -6 1 -7
12 -3 28 9 103 57 103 66 0 10 0 10 -45 -23z"/>
<path d="M403 1074 c5 -72 29 -113 54 -93 14 12 14 11 17 -39 1 -28 66 -75 66
-48 0 30 -27 81 -59 111 -25 24 -31 38 -31 70 0 33 -5 42 -26 52 l-26 12 5
-65z"/>
<path d="M1558 1119 c-12 -7 -18 -22 -18 -48 0 -28 -7 -44 -26 -62 -30 -27
-54 -70 -60 -106 l-5 -25 33 19 c27 15 34 26 36 57 3 29 6 35 16 27 24 -20 54
27 58 92 3 58 -2 65 -34 46z"/>
<path d="M590 1086 c0 -13 100 -75 130 -80 l35 -6 -38 15 c-21 8 -56 28 -77
45 -35 28 -50 36 -50 26z"/>
<path d="M1346 1055 c-27 -19 -55 -35 -62 -35 -7 0 -15 -4 -18 -9 -3 -4 5 -6
17 -4 23 5 139 83 122 83 -6 0 -32 -16 -59 -35z"/>
<path d="M570 1016 c0 -2 28 -21 63 -43 60 -39 113 -61 101 -42 -3 5 -11 9
-19 9 -8 0 -40 18 -71 40 -51 36 -74 47 -74 36z"/>
<path d="M1350 980 c-30 -21 -66 -40 -80 -41 -24 -2 -24 -2 -3 -6 21 -4 135
57 149 79 11 17 -13 6 -66 -32z"/>
<path d="M948 828 c-26 -9 -89 -21 -140 -24 -110 -8 -116 -9 -122 -15 -3 -3
17 -45 45 -95 44 -78 52 -102 66 -189 8 -55 15 -101 16 -102 3 -2 145 -5 263
-4 l101 1 6 53 c15 125 21 144 73 237 30 53 54 99 54 101 0 3 -10 5 -22 5 -90
2 -216 18 -251 33 -40 17 -44 17 -89 -1z m201 -47 c8 -6 7 -20 -6 -54 -10 -26
-20 -47 -24 -47 -4 0 -10 16 -13 35 -7 37 -15 42 -34 23 -8 -8 -15 -8 -27 2
-12 10 -18 10 -29 1 -11 -9 -20 -10 -36 -1 -16 9 -25 8 -36 -1 -11 -9 -17 -9
-29 1 -12 10 -16 10 -19 -1 -2 -8 -9 -27 -14 -44 l-9 -30 -20 55 c-15 39 -18
57 -10 62 15 9 291 8 306 -1z m-229 -246 c11 14 14 13 27 -2 11 -14 16 -15 20
-5 4 9 8 10 18 2 10 -8 15 -8 20 1 6 8 10 7 16 -2 8 -11 12 -10 24 5 15 19 15
19 28 1 13 -17 16 -16 51 21 l38 39 -7 -45 c-4 -25 -8 -52 -10 -60 -2 -8 -4
-20 -4 -25 -1 -7 -53 -11 -145 -10 l-144 0 -6 35 c-3 19 -8 51 -12 70 l-7 35
40 -38 c35 -33 41 -36 53 -22z"/>
</g>
</svg>
